<?xml version="1.0" encoding="UTF-8"?><svg id="Layer_1" xmlns="http://www.w3.org/2000/svg" viewBox="0 0 103.74 127.47"><defs><style>.cls-1{fill:#e7004c;}.cls-1,.cls-2,.cls-3{stroke-width:0px;}.cls-2{fill:#001f60;}.cls-3{fill:#fff;opacity:.5;}</style></defs><path class="cls-3" d="M103.74,80.98v32.4c0,7.78-6.31,14.09-14.09,14.09H14.09c-7.78,0-14.09-6.31-14.09-14.09V14.09C0,6.31,6.31,0,14.09,0h75.56c7.78,0,14.09,6.31,14.09,14.09v32.4"/><path class="cls-1" d="M69.92,20.59c3.63,0,6.56,2.94,6.56,6.56v11.48c0,.91-.73,1.64-1.64,1.64h-3.28c-.91,0-1.64-.73-1.64-1.64v-11.48s-14.76,0-14.76,0c-.91,0-1.64-.73-1.64-1.64v-3.28c0-.91.73-1.64,1.64-1.64h14.76Z"/><path class="cls-1" d="M71.56,86.2h3.28c.91,0,1.64.73,1.64,1.64v11.48c0,3.63-2.94,6.56-6.56,6.56h-14.76c-.91,0-1.64-.73-1.64-1.64v-3.28c0-.91.73-1.64,1.64-1.64h14.76s0-11.48,0-11.48c0-.91.73-1.64,1.64-1.64Z"/><path class="cls-1" d="M101.09,68.16h-31.17s0,10.32,0,10.32c0,.43-.52.64-.82.34l-15.22-15.22c-.2-.2-.2-.53,0-.73l15.22-15.22c.3-.3.82-.09.82.34v10.32s31.17,0,31.17,0c.91,0,1.64.73,1.64,1.64v6.56c0,.91-.73,1.64-1.64,1.64Z"/><path class="cls-2" d="M13.43,26.67c-1.52.45-2.56,1.82-2.56,3.38v66.37c0,1.55,1.04,2.93,2.56,3.38l31.18,9.28c1.17.35,2.35-.51,2.35-1.71V19.07c0-1.18-1.17-2.03-2.32-1.68l-31.2,9.29h0ZM33.84,59.96c0-1.81,1.47-3.28,3.28-3.28s3.28,1.47,3.28,3.28v6.56c0,1.81-1.47,3.28-3.28,3.28s-3.28-1.47-3.28-3.28v-6.56Z"/></svg>