<?xml version="1.0" encoding="UTF-8"?><svg id="Layer_1" xmlns="http://www.w3.org/2000/svg" viewBox="0 0 103.74 127.47"><defs><style>.cls-1{fill:#e7004c;}.cls-1,.cls-2,.cls-3{stroke-width:0px;}.cls-2{fill:#001f60;}.cls-3{fill:#fff;opacity:.5;}</style></defs><path class="cls-3" d="M0,80.98v32.4c0,7.78,6.31,14.09,14.09,14.09h75.56c7.78,0,14.09-6.31,14.09-14.09V14.09c0-7.78-6.31-14.09-14.09-14.09H14.09C6.31,0,0,6.31,0,14.09v32.4"/><path class="cls-1" d="M48.58,20.59c.91,0,1.64.73,1.64,1.64v3.28c0,.91-.73,1.64-1.64,1.64h-14.76v11.48c0,.91-.73,1.64-1.64,1.64h-3.28c-.91,0-1.64-.73-1.64-1.64v-11.48c0-3.63,2.94-6.56,6.56-6.56h14.76Z"/><path class="cls-1" d="M33.82,87.84v11.48h14.76c.91,0,1.64.73,1.64,1.64v3.28c0,.91-.73,1.64-1.64,1.64h-14.76c-3.63,0-6.56-2.94-6.56-6.56v-11.48c0-.91.73-1.64,1.64-1.64h3.28c.91,0,1.64.73,1.64,1.64Z"/><path class="cls-1" d="M1.01,66.52v-6.56c0-.91.73-1.64,1.64-1.64h31.17v-10.32c0-.43.52-.64.82-.34l15.22,15.22c.2.2.2.53,0,.73l-15.22,15.22c-.3.3-.82.09-.82-.34v-10.32H2.65c-.91,0-1.64-.73-1.64-1.64Z"/><path class="cls-2" d="M90.31,26.67l-31.2-9.29c-1.15-.34-2.32.5-2.32,1.68v88.31c0,1.2,1.18,2.05,2.35,1.71l31.18-9.28c1.52-.45,2.56-1.82,2.56-3.38V30.05c0-1.55-1.04-2.93-2.56-3.38h0ZM69.9,66.52c0,1.81-1.47,3.28-3.28,3.28s-3.28-1.47-3.28-3.28v-6.56c0-1.81,1.47-3.28,3.28-3.28s3.28,1.47,3.28,3.28v6.56Z"/></svg>