<?xml version="1.0" encoding="UTF-8"?><svg id="Layer_1" xmlns="http://www.w3.org/2000/svg" viewBox="0 0 103.74 127.47"><defs><style>.cls-1{fill:#e7004c;}.cls-1,.cls-2,.cls-3{stroke-width:0px;}.cls-2{fill:#001f60;}.cls-3{opacity:.5;}.cls-3,.cls-4{fill:#fff;}.cls-4{font-family:BebasNeue, 'Bebas Neue';font-size:21.28px;}</style></defs><path class="cls-3" d="M0,80.98v32.4c0,7.78,6.31,14.09,14.09,14.09h75.56c7.78,0,14.09-6.31,14.09-14.09V14.09c0-7.78-6.31-14.09-14.09-14.09H14.09C6.31,0,0,6.31,0,14.09v32.4"/><path class="cls-2" d="M47.97,89.8c-.1-.26-.13-.47-.1-.65.03-.17-.08-.32-.34-.43s-.38-.2-.38-.26-.18-.11-.55-.14c-.37-.03-.55-.05-.55-.05h-14.95c-2.11,0-3.91-.75-5.42-2.25-1.5-1.5-2.25-3.31-2.25-5.41v-33.74c0-2.11.75-3.91,2.25-5.41s3.31-2.25,5.42-2.25h15.33c.42,0,.74-.1.98-.31.24-.21.4-.52.48-.93.08-.42.13-.79.14-1.13.02-.34,0-.76-.02-1.27-.03-.51-.05-.83-.05-.96,0-.42-.15-.77-.46-1.08-.3-.3-.66-.45-1.08-.45h-15.33c-3.8,0-7.05,1.35-9.75,4.05-2.7,2.7-4.05,5.95-4.05,9.75v33.74c0,3.8,1.35,7.05,4.05,9.75,2.7,2.7,5.95,4.05,9.75,4.05h15.33c.42,0,.74-.1.98-.31.24-.21.4-.52.48-.94.08-.41.13-.79.14-1.13.02-.34,0-.76-.02-1.27-.03-.51-.05-.83-.05-.96Z"/><path class="cls-1" d="M91.53,61.58l-26.07-26.07c-.61-.61-1.33-.91-2.16-.91s-1.55.3-2.16.91c-.61.61-.91,1.33-.91,2.16v13.8h-21.47c-.83,0-1.55.3-2.16.91-.61.61-.91,1.33-.91,2.16v18.4c0,.83.3,1.55.91,2.16.61.61,1.33.91,2.16.91h21.47v13.8c0,.83.3,1.55.91,2.16.61.61,1.33.91,2.16.91s1.55-.3,2.16-.91l26.07-26.07c.61-.61.91-1.33.91-2.16,0-.83-.3-1.55-.91-2.16Z"/><text class="cls-4" transform="translate(39.43 70.9)"><tspan x="0" y="0">EXIT</tspan></text></svg>