<?xml version="1.0" encoding="UTF-8"?><svg id="Layer_1" xmlns="http://www.w3.org/2000/svg" viewBox="0 0 121.15 121.15"><defs><style>.cls-1{fill:#e7004c;}.cls-1,.cls-2,.cls-3{stroke-width:0px;}.cls-2{fill:#2d2a26;}.cls-3{fill:#fff;opacity:.5;}</style></defs><circle class="cls-3" cx="60.58" cy="60.58" r="60.58"/><path class="cls-2" d="M34.64,100.47h.04l1.33-8.95h2.75v12.6h-1.87v-9.04h-.04l-1.33,9.04h-1.87l-1.44-8.91h-.04v8.91h-1.73v-12.6h2.75l1.44,8.95Z"/><path class="cls-2" d="M40.04,94.55c0-2.02,1.06-3.17,3.01-3.17s3.01,1.15,3.01,3.17v6.55c0,2.02-1.06,3.17-3.01,3.17s-3.01-1.15-3.01-3.17v-6.55ZM42.02,101.23c0,.9.4,1.24,1.03,1.24s1.03-.34,1.03-1.24v-6.81c0-.9-.4-1.24-1.03-1.24s-1.03.34-1.03,1.24v6.81Z"/><path class="cls-2" d="M50.28,101.8h.04l1.49-10.28h1.82l-1.94,12.6h-2.95l-1.94-12.6h2l1.5,10.28Z"/><path class="cls-2" d="M56.53,96.83h2.72v1.8h-2.72v3.69h3.42v1.8h-5.4v-12.6h5.4v1.8h-3.42v3.51Z"/><path class="cls-2" d="M65.94,104.12h-1.98v-12.6h1.98v5.4h2.25v-5.4h2.02v12.6h-2.02v-5.4h-2.25v5.4Z"/><path class="cls-2" d="M73.63,96.83h2.72v1.8h-2.72v3.69h3.42v1.8h-5.4v-12.6h5.4v1.8h-3.42v3.51Z"/><path class="cls-2" d="M82.41,104.12c-.11-.32-.18-.52-.18-1.55v-1.98c0-1.17-.4-1.6-1.3-1.6h-.68v5.13h-1.98v-12.6h2.99c2.05,0,2.93.95,2.93,2.9v.99c0,1.3-.41,2.12-1.3,2.54v.04c.99.41,1.31,1.35,1.31,2.67v1.94c0,.61.02,1.06.22,1.53h-2.02ZM80.25,93.32v3.87h.77c.74,0,1.19-.32,1.19-1.33v-1.24c0-.9-.31-1.3-1.01-1.3h-.95Z"/><path class="cls-2" d="M87.49,96.83h2.72v1.8h-2.72v3.69h3.42v1.8h-5.4v-12.6h5.4v1.8h-3.42v3.51Z"/><path class="cls-1" d="M60.58,15.26c-12.59,0-22.83,10.24-22.83,22.83,0,3.78.94,7.53,2.74,10.85l18.84,34.08c.25.45.73.74,1.25.74s1-.28,1.25-.74l18.85-34.09c1.79-3.31,2.73-7.06,2.73-10.84,0-12.59-10.24-22.83-22.83-22.83ZM60.58,49.51c-6.29,0-11.42-5.12-11.42-11.42s5.12-11.42,11.42-11.42,11.42,5.12,11.42,11.42-5.12,11.42-11.42,11.42Z"/></svg>