<svg width="348" height="345" xmlns="http://www.w3.org/2000/svg" xmlns:xlink="http://www.w3.org/1999/xlink" xml:space="preserve" overflow="hidden"><defs><clipPath id="clip0"><rect x="384" y="148" width="348" height="345"/></clipPath><clipPath id="clip1"><rect x="385" y="148" width="346" height="345"/></clipPath><clipPath id="clip2"><rect x="385" y="148" width="346" height="345"/></clipPath><clipPath id="clip3"><rect x="385" y="148" width="346" height="345"/></clipPath></defs><g clip-path="url(#clip0)" transform="translate(-384 -148)"><g clip-path="url(#clip1)"><g clip-path="url(#clip2)"><g clip-path="url(#clip3)"><path d="M307.266 271.688 262.344 226.766C256.234 220.656 247.969 218.5 240.063 219.938L224.25 204.125C238.266 186.156 246.531 163.156 246.531 138.719 246.531 79.4219 198.016 30.9063 138.719 30.9063 79.4219 30.9063 30.9063 79.4219 30.9063 138.719 30.9063 198.016 79.4219 246.531 138.719 246.531 163.156 246.531 185.797 238.266 204.125 224.25L219.938 240.063C218.5 247.969 220.656 256.234 226.766 262.344L271.688 307.266C276.719 312.297 283.188 314.812 289.656 314.812 296.125 314.812 302.594 312.297 307.625 307.266 316.969 297.203 316.969 281.391 307.266 271.688ZM138.359 224.609C90.9219 224.609 52.1094 185.797 52.1094 138.359 52.1094 90.9219 90.9219 52.1094 138.359 52.1094 185.797 52.1094 224.609 90.9219 224.609 138.359 224.609 185.797 185.797 224.609 138.359 224.609Z" fill="#DF1B53" fill-rule="nonzero" fill-opacity="1" transform="matrix(1.0029 0 0 1 385 148)"/></g></g></g></g></svg>