<svg width="568" height="568" xmlns="http://www.w3.org/2000/svg" xmlns:xlink="http://www.w3.org/1999/xlink" xml:space="preserve" overflow="hidden"><defs><clipPath id="clip0"><rect x="232" y="82" width="568" height="568"/></clipPath><clipPath id="clip1"><rect x="232" y="83" width="567" height="567"/></clipPath><clipPath id="clip2"><rect x="232" y="83" width="567" height="567"/></clipPath><clipPath id="clip3"><rect x="232" y="83" width="567" height="567"/></clipPath></defs><g clip-path="url(#clip0)" transform="translate(-232 -82)"><g clip-path="url(#clip1)"><g clip-path="url(#clip2)"><g clip-path="url(#clip3)"><path d="M515.5 342.875C485.969 342.875 462.344 319.25 462.344 289.719 462.344 260.188 485.969 236.562 515.5 236.562 545.031 236.562 568.656 260.188 568.656 289.719 568.656 319.25 545.031 342.875 515.5 342.875ZM515.5 165.688C474.747 165.688 436.356 185.769 413.322 220.025 390.288 253.691 385.562 296.806 400.328 335.197L456.438 459.228 504.869 560.816C506.641 564.95 510.775 567.312 515.5 567.312 520.225 567.312 524.359 564.95 526.131 560.816L574.562 459.228 630.672 335.197C645.438 296.806 640.712 253.691 617.678 220.025 594.644 185.769 556.253 165.688 515.5 165.688Z" fill="#DF1B53" fill-rule="nonzero" fill-opacity="1"/></g></g></g></g></svg>